<?xml version="1.0" encoding="UTF-8"?>
<svg version="1.1" xmlns="http://www.w3.org/2000/svg" width="64" height="64">
<path d="M0 0 C21.12 0 42.24 0 64 0 C64 21.12 64 42.24 64 64 C42.88 64 21.76 64 0 64 C0 42.88 0 21.76 0 0 Z " fill="#FEFEFE" transform="translate(0,0)"/>
<path d="M0 0 C21.12 0 42.24 0 64 0 C64 21.12 64 42.24 64 64 C42.88 64 21.76 64 0 64 C0 42.88 0 21.76 0 0 Z M3 5 C2.045816 7.86255201 1.86330203 9.69374628 1.83886719 12.66748047 C1.82925964 13.61211151 1.8196521 14.55674255 1.80975342 15.52999878 C1.80550354 16.54877106 1.80125366 17.56754333 1.796875 18.6171875 C1.79117493 19.66649445 1.78547485 20.71580139 1.77960205 21.79690552 C1.77015314 24.01775097 1.7636185 26.23861044 1.75976562 28.45947266 C1.75005792 31.85474112 1.71903216 35.24940482 1.6875 38.64453125 C1.68097005 40.80207974 1.67571955 42.95963256 1.671875 45.1171875 C1.6595282 46.13191132 1.6471814 47.14663513 1.63446045 48.19210815 C1.58561151 55.12616797 1.58561151 55.12616797 5 61 C7.86255201 61.954184 9.69374628 62.13669797 12.66748047 62.16113281 C13.61211151 62.17074036 14.55674255 62.1803479 15.52999878 62.19024658 C16.54877106 62.19449646 17.56754333 62.19874634 18.6171875 62.203125 C20.19114792 62.21167511 20.19114792 62.21167511 21.79690552 62.22039795 C24.01775097 62.22984686 26.23861044 62.2363815 28.45947266 62.24023438 C31.85474112 62.24994208 35.24940482 62.28096784 38.64453125 62.3125 C40.80207974 62.31902995 42.95963256 62.32428045 45.1171875 62.328125 C46.63927322 62.3466452 46.63927322 62.3466452 48.19210815 62.36553955 C55.12616797 62.41438849 55.12616797 62.41438849 61 59 C61.96161609 56.11515174 62.12654587 54.29771522 62.12939453 51.30078125 C62.13412277 49.87415161 62.13412277 49.87415161 62.13894653 48.41870117 C62.1369223 47.39365479 62.13489807 46.3686084 62.1328125 45.3125 C62.13376923 44.25844971 62.13472595 43.20439941 62.13571167 42.1184082 C62.13639238 39.88915955 62.13454571 37.65990891 62.13037109 35.43066406 C62.12502133 32.01362669 62.13031981 28.59672077 62.13671875 25.1796875 C62.13605795 23.01562471 62.13477675 20.851562 62.1328125 18.6875 C62.13483673 17.66245361 62.13686096 16.63740723 62.13894653 15.58129883 C62.13579437 14.6302124 62.13264221 13.67912598 62.12939453 12.69921875 C62.12859894 11.86221436 62.12780334 11.02520996 62.12698364 10.1628418 C62.0832976 7.81642396 62.0832976 7.81642396 61 5 C60.34 5 59.68 5 59 5 C59 4.34 59 3.68 59 3 C56.13744799 2.045816 54.30625372 1.86330203 51.33251953 1.83886719 C50.38788849 1.82925964 49.44325745 1.8196521 48.47000122 1.80975342 C47.45122894 1.80550354 46.43245667 1.80125366 45.3828125 1.796875 C44.33350555 1.79117493 43.28419861 1.78547485 42.20309448 1.77960205 C39.98224903 1.77015314 37.76138956 1.7636185 35.54052734 1.75976562 C32.14525888 1.75005792 28.75059518 1.71903216 25.35546875 1.6875 C23.19792026 1.68097005 21.04036744 1.67571955 18.8828125 1.671875 C17.86808868 1.6595282 16.85336487 1.6471814 15.80789185 1.63446045 C8.87383203 1.58561151 8.87383203 1.58561151 3 5 Z " fill="#DCEDE0" transform="translate(0,0)"/>
<path d="M0 0 C1.21236328 0.02707031 1.21236328 0.02707031 2.44921875 0.0546875 C3.37154297 0.08949219 3.37154297 0.08949219 4.3125 0.125 C4.3125 2.435 4.3125 4.745 4.3125 7.125 C2.6625 7.125 1.0125 7.125 -0.6875 7.125 C-0.6875 8.115 -0.6875 9.105 -0.6875 10.125 C0.9625 10.125 2.6125 10.125 4.3125 10.125 C4.3125 12.105 4.3125 14.085 4.3125 16.125 C2.6625 16.125 1.0125 16.125 -0.6875 16.125 C-0.6875 21.405 -0.6875 26.685 -0.6875 32.125 C-2.9975 32.125 -5.3075 32.125 -7.6875 32.125 C-7.6875 26.845 -7.6875 21.565 -7.6875 16.125 C-9.0075 16.125 -10.3275 16.125 -11.6875 16.125 C-11.6875 14.475 -11.6875 12.825 -11.6875 11.125 C-10.3675 11.125 -9.0475 11.125 -7.6875 11.125 C-7.72230469 10.49851562 -7.75710937 9.87203125 -7.79296875 9.2265625 C-7.83357422 8.00066406 -7.83357422 8.00066406 -7.875 6.75 C-7.90980469 5.93789063 -7.94460937 5.12578125 -7.98046875 4.2890625 C-7.88378906 3.57492188 -7.78710938 2.86078125 -7.6875 2.125 C-4.48369983 -0.01086678 -3.66810033 -0.10632175 0 0 Z " fill="#93C89E" transform="translate(35.6875,15.875)"/>
<path d="M0 0 C1.22589844 0.01353516 1.22589844 0.01353516 2.4765625 0.02734375 C3.41628906 0.04474609 3.41628906 0.04474609 4.375 0.0625 C4.375 2.3725 4.375 4.6825 4.375 7.0625 C2.725 7.0625 1.075 7.0625 -0.625 7.0625 C-0.625 8.0525 -0.625 9.0425 -0.625 10.0625 C1.025 10.0625 2.675 10.0625 4.375 10.0625 C4.375 12.0425 4.375 14.0225 4.375 16.0625 C3.715 16.0625 3.055 16.0625 2.375 16.0625 C2.375 14.7425 2.375 13.4225 2.375 12.0625 C0.725 12.0625 -0.925 12.0625 -2.625 12.0625 C-3.625 5.4375 -3.625 5.4375 -3.625 2.0625 C-4.285 2.0625 -4.945 2.0625 -5.625 2.0625 C-5.625 2.7225 -5.625 3.3825 -5.625 4.0625 C-6.285 4.0625 -6.945 4.0625 -7.625 4.0625 C-7.295 3.0725 -6.965 2.0825 -6.625 1.0625 C-4.21954362 -0.14022819 -2.67503047 -0.03821472 0 0 Z " fill="#97CBA2" transform="translate(35.625,15.9375)"/>
<path d="M0 0 C1.98 0 3.96 0 6 0 C5.071875 1.1446875 5.071875 1.1446875 4.125 2.3125 C1.94402948 4.99625809 1.94402948 4.99625809 0 8 C0 5.36 0 2.72 0 0 Z " fill="#FAFDFA" transform="translate(0,0)"/>
<path d="M0 0 C0.33 0 0.66 0 1 0 C1 2.64 1 5.28 1 8 C-0.98 8 -2.96 8 -5 8 C-4.34 7.01 -3.68 6.02 -3 5 C-2.34 5 -1.68 5 -1 5 C-0.67 3.35 -0.34 1.7 0 0 Z " fill="#FBFDFA" transform="translate(63,56)"/>
<path d="M0 0 C0.33 0.99 0.66 1.98 1 3 C2.65 3 4.3 3 6 3 C6 4.98 6 6.96 6 9 C5.34 9 4.68 9 4 9 C4 7.68 4 6.36 4 5 C2.68 4.67 1.36 4.34 0 4 C0 2.68 0 1.36 0 0 Z " fill="#AFD7B7" transform="translate(34,23)"/>
<path d="M0 0 C2.31 0 4.62 0 7 0 C7 1.98 7 3.96 7 6 C6.34 5.67 5.68 5.34 5 5 C5 4.34 5 3.68 5 3 C2.525 2.01 2.525 2.01 0 1 C0 0.67 0 0.34 0 0 Z " fill="#FCFDFB" transform="translate(57,0)"/>
<path d="M0 0 C2.43929746 1.92576115 4.80090595 3.80090595 7 6 C4.69 6 2.38 6 0 6 C0 4.02 0 2.04 0 0 Z " fill="#FCFDFB" transform="translate(0,58)"/>
</svg>
