<?xml version="1.0" encoding="UTF-8"?>
<svg version="1.1" xmlns="http://www.w3.org/2000/svg" width="64" height="64">
<path d="M0 0 C21.12 0 42.24 0 64 0 C64 21.12 64 42.24 64 64 C42.88 64 21.76 64 0 64 C0 42.88 0 21.76 0 0 Z " fill="#FEFEFE" transform="translate(0,0)"/>
<path d="M0 0 C0.83273438 -0.00128906 1.66546875 -0.00257812 2.5234375 -0.00390625 C3.83054687 0.00189453 3.83054687 0.00189453 5.1640625 0.0078125 C6.02773438 0.00394531 6.89140625 0.00007812 7.78125 -0.00390625 C8.6165625 -0.00261719 9.451875 -0.00132813 10.3125 0 C11.07481934 0.00112793 11.83713867 0.00225586 12.62255859 0.00341797 C14.82831754 0.13515701 16.69461749 0.4281368 18.7890625 1.1328125 C22.56999585 5.46245274 22.27271846 10.11971273 22.2265625 15.5703125 C22.2565332 16.82038086 22.2565332 16.82038086 22.28710938 18.09570312 C22.28278841 23.56172091 21.52847878 26.86595595 17.7890625 31.1328125 C13.64765186 32.51328271 9.75205027 32.35675852 5.4140625 32.3828125 C4.56328125 32.4034375 3.7125 32.4240625 2.8359375 32.4453125 C-1.92965094 32.47500464 -5.46595053 32.44511173 -9.2109375 29.1328125 C-10.6582893 24.76168214 -10.47161381 20.25234228 -10.5234375 15.6953125 C-10.55244141 14.84904297 -10.58144531 14.00277344 -10.61132812 13.13085938 C-10.65398886 8.94026281 -10.58338218 6.72949192 -8.31640625 3.09765625 C-5.40416956 0.37992888 -3.87474878 0.0057501 0 0 Z " fill="#F9FCF9" transform="translate(26.2109375,15.8671875)"/>
<path d="M0 0 C21.12 0 42.24 0 64 0 C64 21.12 64 42.24 64 64 C42.88 64 21.76 64 0 64 C0 42.88 0 21.76 0 0 Z M3 5 C2.045816 7.86255201 1.86330203 9.69374628 1.83886719 12.66748047 C1.82925964 13.61211151 1.8196521 14.55674255 1.80975342 15.52999878 C1.80550354 16.54877106 1.80125366 17.56754333 1.796875 18.6171875 C1.79117493 19.66649445 1.78547485 20.71580139 1.77960205 21.79690552 C1.77015314 24.01775097 1.7636185 26.23861044 1.75976562 28.45947266 C1.75005792 31.85474112 1.71903216 35.24940482 1.6875 38.64453125 C1.68097005 40.80207974 1.67571955 42.95963256 1.671875 45.1171875 C1.6595282 46.13191132 1.6471814 47.14663513 1.63446045 48.19210815 C1.58561151 55.12616797 1.58561151 55.12616797 5 61 C7.86255201 61.954184 9.69374628 62.13669797 12.66748047 62.16113281 C13.61211151 62.17074036 14.55674255 62.1803479 15.52999878 62.19024658 C16.54877106 62.19449646 17.56754333 62.19874634 18.6171875 62.203125 C20.19114792 62.21167511 20.19114792 62.21167511 21.79690552 62.22039795 C24.01775097 62.22984686 26.23861044 62.2363815 28.45947266 62.24023438 C31.85474112 62.24994208 35.24940482 62.28096784 38.64453125 62.3125 C40.80207974 62.31902995 42.95963256 62.32428045 45.1171875 62.328125 C46.63927322 62.3466452 46.63927322 62.3466452 48.19210815 62.36553955 C55.12616797 62.41438849 55.12616797 62.41438849 61 59 C61.96161609 56.11515174 62.12654587 54.29771522 62.12939453 51.30078125 C62.13412277 49.87415161 62.13412277 49.87415161 62.13894653 48.41870117 C62.1369223 47.39365479 62.13489807 46.3686084 62.1328125 45.3125 C62.13376923 44.25844971 62.13472595 43.20439941 62.13571167 42.1184082 C62.13639238 39.88915955 62.13454571 37.65990891 62.13037109 35.43066406 C62.12502133 32.01362669 62.13031981 28.59672077 62.13671875 25.1796875 C62.13605795 23.01562471 62.13477675 20.851562 62.1328125 18.6875 C62.13483673 17.66245361 62.13686096 16.63740723 62.13894653 15.58129883 C62.13579437 14.6302124 62.13264221 13.67912598 62.12939453 12.69921875 C62.12859894 11.86221436 62.12780334 11.02520996 62.12698364 10.1628418 C62.0832976 7.81642396 62.0832976 7.81642396 61 5 C60.34 5 59.68 5 59 5 C59 4.34 59 3.68 59 3 C56.13744799 2.045816 54.30625372 1.86330203 51.33251953 1.83886719 C50.38788849 1.82925964 49.44325745 1.8196521 48.47000122 1.80975342 C47.45122894 1.80550354 46.43245667 1.80125366 45.3828125 1.796875 C44.33350555 1.79117493 43.28419861 1.78547485 42.20309448 1.77960205 C39.98224903 1.77015314 37.76138956 1.7636185 35.54052734 1.75976562 C32.14525888 1.75005792 28.75059518 1.71903216 25.35546875 1.6875 C23.19792026 1.68097005 21.04036744 1.67571955 18.8828125 1.671875 C17.86808868 1.6595282 16.85336487 1.6471814 15.80789185 1.63446045 C8.87383203 1.58561151 8.87383203 1.58561151 3 5 Z " fill="#DCEDE0" transform="translate(0,0)"/>
<path d="M0 0 C0.83273438 -0.00128906 1.66546875 -0.00257812 2.5234375 -0.00390625 C3.83054687 0.00189453 3.83054687 0.00189453 5.1640625 0.0078125 C6.02773438 0.00394531 6.89140625 0.00007812 7.78125 -0.00390625 C8.6165625 -0.00261719 9.451875 -0.00132813 10.3125 0 C11.07481934 0.00112793 11.83713867 0.00225586 12.62255859 0.00341797 C14.82831754 0.13515701 16.69461749 0.4281368 18.7890625 1.1328125 C22.56999585 5.46245274 22.27271846 10.11971273 22.2265625 15.5703125 C22.2565332 16.82038086 22.2565332 16.82038086 22.28710938 18.09570312 C22.28278841 23.56172091 21.52847878 26.86595595 17.7890625 31.1328125 C13.64765186 32.51328271 9.75205027 32.35675852 5.4140625 32.3828125 C4.56328125 32.4034375 3.7125 32.4240625 2.8359375 32.4453125 C-1.92965094 32.47500464 -5.46595053 32.44511173 -9.2109375 29.1328125 C-10.6582893 24.76168214 -10.47161381 20.25234228 -10.5234375 15.6953125 C-10.55244141 14.84904297 -10.58144531 14.00277344 -10.61132812 13.13085938 C-10.65398886 8.94026281 -10.58338218 6.72949192 -8.31640625 3.09765625 C-5.40416956 0.37992888 -3.87474878 0.0057501 0 0 Z M-7.2109375 6.1328125 C-7.89435268 9.11049404 -7.81728004 11.9673827 -7.7109375 15.0078125 C-7.71351562 15.81089844 -7.71609375 16.61398438 -7.71875 17.44140625 C-7.66164988 20.90738359 -7.29792542 23.84110302 -6.3046875 27.171875 C-2.80384536 30.45064879 1.18812262 29.77537683 5.7890625 29.6328125 C6.70429687 29.63539062 7.61953125 29.63796875 8.5625 29.640625 C13.33125125 29.75183521 13.33125125 29.75183521 17.54931641 27.88867188 C19.13074322 25.64888817 19.17600461 24.29855125 19.1875 21.5703125 C19.19136719 20.69117187 19.19523437 19.81203125 19.19921875 18.90625 C19.18761719 17.99101563 19.17601563 17.07578125 19.1640625 16.1328125 C19.17566406 15.21757812 19.18726562 14.30234375 19.19921875 13.359375 C19.19341797 12.04066406 19.19341797 12.04066406 19.1875 10.6953125 C19.18411621 9.89222656 19.18073242 9.08914062 19.17724609 8.26171875 C18.68966965 5.58771463 17.98568593 4.70830032 15.7890625 3.1328125 C13.85117674 2.6752413 13.85117674 2.6752413 11.734375 2.734375 C10.95449219 2.73050781 10.17460938 2.72664063 9.37109375 2.72265625 C8.15486328 2.74005859 8.15486328 2.74005859 6.9140625 2.7578125 C5.70943359 2.74041016 5.70943359 2.74041016 4.48046875 2.72265625 C-1.97763411 2.72129207 -1.97763411 2.72129207 -7.2109375 6.1328125 Z " fill="#95C99F" transform="translate(26.2109375,15.8671875)"/>
<path d="M0 0 C1.32 0 2.64 0 4 0 C4 1.32 4 2.64 4 4 C3.01 4 2.02 4 1 4 C1.33 4.66 1.66 5.32 2 6 C2.37453632 9.97008503 2.32747775 12.3586894 0.5 15.9375 C-2.52927279 18.43665005 -4.24727566 18.7459903 -8.09375 18.48046875 C-10 18 -10 18 -12.5 15.9375 C-14.37276489 12.27000208 -14.59172793 10.06812955 -14 6 C-12.5625 3.5625 -12.5625 3.5625 -10 2 C-6.96917943 1.68178992 -4.03467666 1.76656333 -1 2 C-0.67 1.34 -0.34 0.68 0 0 Z " fill="#9DCEA7" transform="translate(38,22)"/>
<path d="M0 0 C6.57692308 0.57692308 6.57692308 0.57692308 8 2 C7.28 8.72 7.28 8.72 6 10 C-0.72 9.28 -0.72 9.28 -2 8 C-2.1875 5.0625 -2.1875 5.0625 -2 2 C-1.34 1.34 -0.68 0.68 0 0 Z " fill="#F9FCFA" transform="translate(29,27)"/>
<path d="M0 0 C0.66 0 1.32 0 2 0 C3.99309219 2.28836511 4.99824885 4.04737684 5.00390625 7.125 C4.75000735 9.43743308 4.40584841 11.70956836 4 14 C3.814375 15.175625 3.62875 16.35125 3.4375 17.5625 C3.293125 18.366875 3.14875 19.17125 3 20 C2.67 20 2.34 20 2 20 C1.93941406 18.97519531 1.87882812 17.95039062 1.81640625 16.89453125 C1.73194974 15.53384305 1.64730433 14.17316657 1.5625 12.8125 C1.52318359 12.13896484 1.48386719 11.46542969 1.44335938 10.77148438 C1.21072435 7.10300898 0.82792989 3.58305794 0 0 Z " fill="#A1CFAA" transform="translate(43,17)"/>
<path d="M0 0 C0.33 0 0.66 0 1 0 C1.28875 0.969375 1.5775 1.93875 1.875 2.9375 C2.64214682 6.10664203 2.64214682 6.10664203 5 7 C5 7.66 5 8.32 5 9 C6.65 9 8.3 9 10 9 C10 9.66 10 10.32 10 11 C6.75 11.3125 6.75 11.3125 3 11 C0.1960091 8.48359791 -0.88548965 7.00769109 -1.3125 3.25 C-1 1 -1 1 0 0 Z " fill="#96CAA1" transform="translate(25,29)"/>
<path d="M0 0 C1.70884005 1.62339805 3.37446717 3.29319053 5 5 C5 5.66 5 6.32 5 7 C5.66 7.33 6.32 7.66 7 8 C3.26512223 7.5020163 1.18762365 7.12508244 -2 5 C-2 4.34 -2 3.68 -2 3 C-1.34 3 -0.68 3 0 3 C0 2.01 0 1.02 0 0 Z " fill="#A6D2AF" transform="translate(19,40)"/>
<path d="M0 0 C1.98 0 3.96 0 6 0 C5.071875 1.1446875 5.071875 1.1446875 4.125 2.3125 C1.94402948 4.99625809 1.94402948 4.99625809 0 8 C0 5.36 0 2.72 0 0 Z " fill="#FAFCFA" transform="translate(0,0)"/>
<path d="M0 0 C0.33 0 0.66 0 1 0 C1 2.64 1 5.28 1 8 C-0.98 8 -2.96 8 -5 8 C-4.34 7.01 -3.68 6.02 -3 5 C-2.34 5 -1.68 5 -1 5 C-0.67 3.35 -0.34 1.7 0 0 Z " fill="#FBFDFA" transform="translate(63,56)"/>
<path d="M0 0 C1.32 0 2.64 0 4 0 C4 1.32 4 2.64 4 4 C2.1875 4.6875 2.1875 4.6875 0 5 C-1.75 3.5625 -1.75 3.5625 -3 2 C-2.34 2 -1.68 2 -1 2 C-0.67 1.34 -0.34 0.68 0 0 Z " fill="#C4E1C9" transform="translate(38,22)"/>
<path d="M0 0 C2.31 0 4.62 0 7 0 C7 1.98 7 3.96 7 6 C6.34 5.67 5.68 5.34 5 5 C5 4.34 5 3.68 5 3 C2.525 2.01 2.525 2.01 0 1 C0 0.67 0 0.34 0 0 Z " fill="#FBFDFB" transform="translate(57,0)"/>
<path d="M0 0 C2.43929746 1.92576115 4.80090595 3.80090595 7 6 C4.69 6 2.38 6 0 6 C0 4.02 0 2.04 0 0 Z " fill="#FCFDFB" transform="translate(0,58)"/>
<path d="M0 0 C0.99 0.33 1.98 0.66 3 1 C1.515 3.475 1.515 3.475 0 6 C-0.33 5.34 -0.66 4.68 -1 4 C-2.65 4 -4.3 4 -6 4 C-6 3.67 -6 3.34 -6 3 C-5.195625 2.87625 -4.39125 2.7525 -3.5625 2.625 C-2.716875 2.41875 -1.87125 2.2125 -1 2 C-0.67 1.34 -0.34 0.68 0 0 Z " fill="#A3D1AD" transform="translate(36,34)"/>
<path d="M0 0 C0 0.66 0 1.32 0 2 C-2.5 3.625 -2.5 3.625 -5 5 C-5.99 4.34 -6.98 3.68 -8 3 C-4.93882432 0.37613513 -4.26826873 0 0 0 Z " fill="#A7D3AF" transform="translate(26,16)"/>
</svg>
