<?xml version="1.0" encoding="UTF-8"?>
<svg version="1.1" xmlns="http://www.w3.org/2000/svg" width="64" height="64">
<path d="M0 0 C21.12 0 42.24 0 64 0 C64 21.12 64 42.24 64 64 C42.88 64 21.76 64 0 64 C0 42.88 0 21.76 0 0 Z " fill="#FDFEFD" transform="translate(0,0)"/>
<path d="M0 0 C21.12 0 42.24 0 64 0 C64 21.12 64 42.24 64 64 C45.19 64 26.38 64 7 64 C7 63.34 7 62.68 7 62 C7.60499329 61.99191315 8.20998657 61.98382629 8.83331299 61.97549438 C15.12753396 61.88946741 21.42143932 61.78996444 27.71533203 61.68261719 C30.06456199 61.64432334 32.41385066 61.60947121 34.76318359 61.578125 C38.13921094 61.53248373 41.51483391 61.47448701 44.890625 61.4140625 C45.94179504 61.40251129 46.99296509 61.39096008 48.07598877 61.37905884 C49.05670349 61.35918915 50.03741821 61.33931946 51.04785156 61.31884766 C51.90944885 61.30552399 52.77104614 61.29220032 53.65875244 61.2784729 C56.23008283 60.97263346 57.84652608 60.43431215 60 59 C60.99293809 56.02118573 61.12119785 54.08512761 61.11352539 50.9777832 C61.11344986 49.95695145 61.11337433 48.93611969 61.11329651 47.88435364 C61.10813522 46.78427475 61.10297394 45.68419586 61.09765625 44.55078125 C61.0962413 43.4230278 61.09482635 42.29527435 61.09336853 41.13334656 C61.0877647 37.52637088 61.07521153 33.91945696 61.0625 30.3125 C61.05748549 27.86914152 61.0529225 25.42578207 61.04882812 22.98242188 C61.03779403 16.98826013 61.02105215 10.99413448 61 5 C60.34 5 59.68 5 59 5 C59 4.34 59 3.68 59 3 C51.81008919 2.94931827 44.6202244 2.91427412 37.43017578 2.89013672 C34.98386921 2.88007496 32.53757467 2.86642419 30.09130859 2.84912109 C26.57646718 2.82488081 23.0617847 2.81351862 19.546875 2.8046875 C18.4519574 2.79436493 17.35703979 2.78404236 16.22894287 2.77340698 C15.20818665 2.77325592 14.18743042 2.77310486 13.13574219 2.77294922 C11.79005157 2.76628738 11.79005157 2.76628738 10.41717529 2.75949097 C7.78367347 3.0215245 6.19194705 3.52322244 4 5 C3.04482467 7.865526 2.84945802 9.76521321 2.79467773 12.74682617 C2.77473251 13.70759567 2.75478729 14.66836517 2.73423767 15.6582489 C2.71752518 16.69270645 2.70081268 17.727164 2.68359375 18.79296875 C2.66281265 19.85413406 2.64203156 20.91529938 2.62062073 22.00862122 C2.55518762 25.40151437 2.49626907 28.7944855 2.4375 32.1875 C2.39430886 34.48633622 2.35069438 36.78516453 2.30664062 39.08398438 C2.1995126 44.7225736 2.09773449 50.36124056 2 56 C1.34 56 0.68 56 0 56 C0 37.52 0 19.04 0 0 Z " fill="#DCECDF" transform="translate(0,0)"/>
<path d="M0 0 C4.48635272 0.37386273 5.76787309 0.97353739 8.75 4.3125 C9.36282516 7.41760611 9.22243105 10.41308848 9.0625 13.5625 C9.03994141 14.40296875 9.01738281 15.2434375 8.99414062 16.109375 C8.93537714 18.17784964 8.84569885 20.24540488 8.75 22.3125 C6.44 22.3125 4.13 22.3125 1.75 22.3125 C1.42 17.3625 1.09 12.4125 0.75 7.3125 C-0.9 7.3125 -2.55 7.3125 -4.25 7.3125 C-6.12824891 9.19074891 -5.64102397 12.35185276 -5.8125 14.875 C-5.93818359 16.67130859 -5.93818359 16.67130859 -6.06640625 18.50390625 C-6.12699219 19.43074219 -6.18757813 20.35757813 -6.25 21.3125 C-8.23 21.3125 -10.21 21.3125 -12.25 21.3125 C-12.25 14.7125 -12.25 8.1125 -12.25 1.3125 C-9.61 1.3125 -6.97 1.3125 -4.25 1.3125 C-3.25 0.3125 -3.25 0.3125 0 0 Z " fill="#92C89C" transform="translate(39.25,24.6875)"/>
<path d="M0 0 C2.31 0 4.62 0 7 0 C7 7.26 7 14.52 7 22 C4.69 22 2.38 22 0 22 C0 14.74 0 7.48 0 0 Z " fill="#9ACCA4" transform="translate(16,25)"/>
<path d="M0 0 C0.66 0.33 1.32 0.66 2 1 C2 6.94 2 12.88 2 19 C-0.31 19 -2.62 19 -5 19 C-5.054138 16.75026553 -5.09285491 14.50015617 -5.125 12.25 C-5.14820313 10.99703125 -5.17140625 9.7440625 -5.1953125 8.453125 C-5.0147594 5.26094619 -4.86967613 3.55068399 -3 1 C-2.01 0.67 -1.02 0.34 0 0 Z " fill="#99CCA2" transform="translate(46,28)"/>
<path d="M0 0 C0.99 0 1.98 0 3 0 C3.268125 0.61875 3.53625 1.2375 3.8125 1.875 C4.95556848 4.2995233 4.95556848 4.2995233 8 6 C7.67 6.66 7.34 7.32 7 8 C4.69 8 2.38 8 0 8 C0 5.36 0 2.72 0 0 Z " fill="#E3F0E6" transform="translate(0,56)"/>
<path d="M0 0 C1.67542976 0.28604898 3.34385343 0.61781233 5 1 C5.625 2.875 5.625 2.875 6 5 C5.34 5.66 4.68 6.32 4 7 C2.68 7 1.36 7 0 7 C-0.38133299 5.0085944 -0.71325582 3.00720923 -1 1 C-0.67 0.67 -0.34 0.34 0 0 Z " fill="#A0CFA9" transform="translate(17,16)"/>
<path d="M0 0 C1.98 0 3.96 0 6 0 C5.071875 1.1446875 5.071875 1.1446875 4.125 2.3125 C1.94402948 4.99625809 1.94402948 4.99625809 0 8 C0 5.36 0 2.72 0 0 Z " fill="#FAFCFA" transform="translate(0,0)"/>
<path d="M0 0 C0.33 0 0.66 0 1 0 C1 2.64 1 5.28 1 8 C-0.98 8 -2.96 8 -5 8 C-4.34 7.01 -3.68 6.02 -3 5 C-2.34 5 -1.68 5 -1 5 C-0.67 3.35 -0.34 1.7 0 0 Z " fill="#FBFDFA" transform="translate(63,56)"/>
<path d="M0 0 C2.31 0 4.62 0 7 0 C7 1.98 7 3.96 7 6 C6.34 5.67 5.68 5.34 5 5 C5 4.34 5 3.68 5 3 C2.525 2.01 2.525 2.01 0 1 C0 0.67 0 0.34 0 0 Z " fill="#FBFDFB" transform="translate(57,0)"/>
<path d="M0 0 C0.598125 0.61875 1.19625 1.2375 1.8125 1.875 C4.00811144 4.13676954 4.00811144 4.13676954 7 6 C4.69 6 2.38 6 0 6 C0 4.02 0 2.04 0 0 Z " fill="#FDFEFC" transform="translate(0,58)"/>
</svg>
