<?xml version="1.0" encoding="UTF-8"?>
<svg version="1.1" xmlns="http://www.w3.org/2000/svg" width="64" height="64">
<path d="M0 0 C21.12 0 42.24 0 64 0 C64 21.12 64 42.24 64 64 C42.88 64 21.76 64 0 64 C0 42.88 0 21.76 0 0 Z " fill="#FDFEFE" transform="translate(0,0)"/>
<path d="M0 0 C21.12 0 42.24 0 64 0 C64 21.12 64 42.24 64 64 C42.88 64 21.76 64 0 64 C0 42.88 0 21.76 0 0 Z M3 5 C2.045816 7.86255201 1.86330203 9.69374628 1.83886719 12.66748047 C1.82925964 13.61211151 1.8196521 14.55674255 1.80975342 15.52999878 C1.80550354 16.54877106 1.80125366 17.56754333 1.796875 18.6171875 C1.79117493 19.66649445 1.78547485 20.71580139 1.77960205 21.79690552 C1.77015314 24.01775097 1.7636185 26.23861044 1.75976562 28.45947266 C1.75005792 31.85474112 1.71903216 35.24940482 1.6875 38.64453125 C1.68097005 40.80207974 1.67571955 42.95963256 1.671875 45.1171875 C1.6595282 46.13191132 1.6471814 47.14663513 1.63446045 48.19210815 C1.58561151 55.12616797 1.58561151 55.12616797 5 61 C7.86255201 61.954184 9.69374628 62.13669797 12.66748047 62.16113281 C13.61211151 62.17074036 14.55674255 62.1803479 15.52999878 62.19024658 C16.54877106 62.19449646 17.56754333 62.19874634 18.6171875 62.203125 C20.19114792 62.21167511 20.19114792 62.21167511 21.79690552 62.22039795 C24.01775097 62.22984686 26.23861044 62.2363815 28.45947266 62.24023438 C31.85474112 62.24994208 35.24940482 62.28096784 38.64453125 62.3125 C40.80207974 62.31902995 42.95963256 62.32428045 45.1171875 62.328125 C46.63927322 62.3466452 46.63927322 62.3466452 48.19210815 62.36553955 C55.12616797 62.41438849 55.12616797 62.41438849 61 59 C61.96161609 56.11515174 62.12654587 54.29771522 62.12939453 51.30078125 C62.13412277 49.87415161 62.13412277 49.87415161 62.13894653 48.41870117 C62.1369223 47.39365479 62.13489807 46.3686084 62.1328125 45.3125 C62.13376923 44.25844971 62.13472595 43.20439941 62.13571167 42.1184082 C62.13639238 39.88915955 62.13454571 37.65990891 62.13037109 35.43066406 C62.12502133 32.01362669 62.13031981 28.59672077 62.13671875 25.1796875 C62.13605795 23.01562471 62.13477675 20.851562 62.1328125 18.6875 C62.13483673 17.66245361 62.13686096 16.63740723 62.13894653 15.58129883 C62.13579437 14.6302124 62.13264221 13.67912598 62.12939453 12.69921875 C62.12859894 11.86221436 62.12780334 11.02520996 62.12698364 10.1628418 C62.0832976 7.81642396 62.0832976 7.81642396 61 5 C60.34 5 59.68 5 59 5 C59 4.34 59 3.68 59 3 C56.13744799 2.045816 54.30625372 1.86330203 51.33251953 1.83886719 C50.38788849 1.82925964 49.44325745 1.8196521 48.47000122 1.80975342 C47.45122894 1.80550354 46.43245667 1.80125366 45.3828125 1.796875 C44.33350555 1.79117493 43.28419861 1.78547485 42.20309448 1.77960205 C39.98224903 1.77015314 37.76138956 1.7636185 35.54052734 1.75976562 C32.14525888 1.75005792 28.75059518 1.71903216 25.35546875 1.6875 C23.19792026 1.68097005 21.04036744 1.67571955 18.8828125 1.671875 C17.86808868 1.6595282 16.85336487 1.6471814 15.80789185 1.63446045 C8.87383203 1.58561151 8.87383203 1.58561151 3 5 Z " fill="#DCECDF" transform="translate(0,0)"/>
<path d="M0 0 C1.49080078 0.17982422 1.49080078 0.17982422 3.01171875 0.36328125 C3.77097656 0.47027344 4.53023437 0.57726562 5.3125 0.6875 C5.120733 8.88118073 3.54360287 16.41801978 -2.41015625 22.42578125 C-7.76544086 26.32953081 -13.25804979 26.41457838 -19.6875 25.6875 C-20.6775 25.3575 -21.6675 25.0275 -22.6875 24.6875 C-22.6875 24.0275 -22.6875 23.3675 -22.6875 22.6875 C-20.7075 22.3575 -18.7275 22.0275 -16.6875 21.6875 C-16.6875 21.0275 -16.6875 20.3675 -16.6875 19.6875 C-17.30625 19.460625 -17.925 19.23375 -18.5625 19 C-21.35409766 17.27577791 -21.73116093 15.77721083 -22.6875 12.6875 C-22.89375 12.06875 -23.1 11.45 -23.3125 10.8125 C-23.85048352 7.76392669 -23.7468698 4.77472981 -23.6875 1.6875 C-23.14609375 1.97367188 -22.6046875 2.25984375 -22.046875 2.5546875 C-19.39430653 3.8282717 -16.70818518 4.82296958 -13.9375 5.8125 C-12.95265625 6.16570313 -11.9678125 6.51890625 -10.953125 6.8828125 C-10.20546875 7.14835937 -9.4578125 7.41390625 -8.6875 7.6875 C-8.749375 6.924375 -8.81125 6.16125 -8.875 5.375 C-8.6875 2.6875 -8.6875 2.6875 -7.54296875 0.85546875 C-4.87946457 -0.82113704 -3.0801171 -0.39860339 0 0 Z " fill="#93C99E" transform="translate(40.6875,18.3125)"/>
<path d="M0 0 C5.28 0 10.56 0 16 0 C16 2.64 16 5.28 16 8 C15.01 8 14.02 8 13 8 C13 7.01 13 6.02 13 5 C12.34 5 11.68 5 11 5 C11 4.34 11 3.68 11 3 C7.37 2.67 3.74 2.34 0 2 C0 1.34 0 0.68 0 0 Z " fill="#E0EFE3" transform="translate(48,0)"/>
<path d="M0 0 C3.05507993 1.52753997 5.44341223 2.80863905 8 5 C8 5.66 8 6.32 8 7 C6 7 6 7 4.375 5.5 C3.92125 5.005 3.4675 4.51 3 4 C2.67 6.31 2.34 8.62 2 11 C1.34 10.67 0.68 10.34 0 10 C0 6.7 0 3.4 0 0 Z " fill="#A6D1AE" transform="translate(17,20)"/>
<path d="M0 0 C1.98 0 3.96 0 6 0 C5.071875 1.1446875 5.071875 1.1446875 4.125 2.3125 C1.94402948 4.99625809 1.94402948 4.99625809 0 8 C0 5.36 0 2.72 0 0 Z " fill="#FAFDFA" transform="translate(0,0)"/>
<path d="M0 0 C0.99 1.485 0.99 1.485 2 3 C2.9793879 4.02019573 3.97895449 5.02149805 5 6 C5.66 6.66 6.32 7.32 7 8 C4.69 8 2.38 8 0 8 C0 5.36 0 2.72 0 0 Z " fill="#FBFDFA" transform="translate(0,56)"/>
<path d="M0 0 C0.33 0 0.66 0 1 0 C1 2.64 1 5.28 1 8 C-0.98 8 -2.96 8 -5 8 C-4.34 7.01 -3.68 6.02 -3 5 C-2.34 5 -1.68 5 -1 5 C-0.67 3.35 -0.34 1.7 0 0 Z " fill="#FBFDFA" transform="translate(63,56)"/>
<path d="M0 0 C2.31 0 4.62 0 7 0 C7 1.98 7 3.96 7 6 C6.34 5.67 5.68 5.34 5 5 C5 4.34 5 3.68 5 3 C2.525 2.01 2.525 2.01 0 1 C0 0.67 0 0.34 0 0 Z " fill="#FBFDFB" transform="translate(57,0)"/>
<path d="M0 0 C1.65 0 3.3 0 5 0 C4.67 3.3 4.34 6.6 4 10 C3.67 10 3.34 10 3 10 C3 8.02 3 6.04 3 4 C2.01 3.67 1.02 3.34 0 3 C0 2.01 0 1.02 0 0 Z " fill="#A4CFAD" transform="translate(41,19)"/>
<path d="M0 0 C0.66 0.33 1.32 0.66 2 1 C2 1.66 2 2.32 2 3 C1.071875 3.4021875 1.071875 3.4021875 0.125 3.8125 C-2.2995233 4.95556848 -2.2995233 4.95556848 -4 8 C-4.33 7.01 -4.66 6.02 -5 5 C-3.35 3.35 -1.7 1.7 0 0 Z " fill="#E2F0E6" transform="translate(6,0)"/>
</svg>
