<?xml version="1.0" encoding="UTF-8"?>
<svg version="1.1" xmlns="http://www.w3.org/2000/svg" width="64" height="64">
<path d="M0 0 C21.12 0 42.24 0 64 0 C64 21.12 64 42.24 64 64 C42.88 64 21.76 64 0 64 C0 42.88 0 21.76 0 0 Z " fill="#FEFEFE" transform="translate(0,0)"/>
<path d="M0 0 C1.23685547 -0.020625 2.47371094 -0.04125 3.74804688 -0.0625 C5.53758789 -0.07023437 5.53758789 -0.07023437 7.36328125 -0.078125 C9.0016394 -0.09214355 9.0016394 -0.09214355 10.6730957 -0.10644531 C14.36464982 0.33007117 17.0403189 1.6028189 19.6875 4.25 C20.02097025 7.51083246 20.0124199 10.7868064 20.0625 14.0625 C20.11857422 15.43631836 20.11857422 15.43631836 20.17578125 16.83789062 C20.18738281 17.72283203 20.19898438 18.60777344 20.2109375 19.51953125 C20.2406665 20.73539917 20.2406665 20.73539917 20.27099609 21.97583008 C19.38410545 25.4324771 17.69347236 26.44095628 14.6875 28.25 C11.58129883 28.7199707 11.58129883 28.7199707 8.14453125 28.67578125 C6.28731445 28.66321289 6.28731445 28.66321289 4.39257812 28.65039062 C3.10802734 28.62138672 1.82347656 28.59238281 0.5 28.5625 C-0.79615234 28.55283203 -2.09230469 28.54316406 -3.42773438 28.53320312 C-12.97543807 28.41853097 -12.97543807 28.41853097 -15.3125 27.25 C-17.57987794 23.03459313 -17.61425129 18.92486687 -17.5625 14.25 C-17.57023437 13.55132812 -17.57796875 12.85265625 -17.5859375 12.1328125 C-17.57066632 8.08594904 -17.24262289 4.83839748 -15.3125 1.25 C-10.8830385 -0.96473075 -4.8639539 0.02008861 0 0 Z " fill="#95C99F" transform="translate(31.3125,17.75)"/>
<path d="M0 0 C21.12 0 42.24 0 64 0 C64 21.12 64 42.24 64 64 C42.88 64 21.76 64 0 64 C0 42.88 0 21.76 0 0 Z M3 5 C2.045816 7.86255201 1.86330203 9.69374628 1.83886719 12.66748047 C1.82925964 13.61211151 1.8196521 14.55674255 1.80975342 15.52999878 C1.80550354 16.54877106 1.80125366 17.56754333 1.796875 18.6171875 C1.79117493 19.66649445 1.78547485 20.71580139 1.77960205 21.79690552 C1.77015314 24.01775097 1.7636185 26.23861044 1.75976562 28.45947266 C1.75005792 31.85474112 1.71903216 35.24940482 1.6875 38.64453125 C1.68097005 40.80207974 1.67571955 42.95963256 1.671875 45.1171875 C1.6595282 46.13191132 1.6471814 47.14663513 1.63446045 48.19210815 C1.58561151 55.12616797 1.58561151 55.12616797 5 61 C7.86255201 61.954184 9.69374628 62.13669797 12.66748047 62.16113281 C13.61211151 62.17074036 14.55674255 62.1803479 15.52999878 62.19024658 C16.54877106 62.19449646 17.56754333 62.19874634 18.6171875 62.203125 C20.19114792 62.21167511 20.19114792 62.21167511 21.79690552 62.22039795 C24.01775097 62.22984686 26.23861044 62.2363815 28.45947266 62.24023438 C31.85474112 62.24994208 35.24940482 62.28096784 38.64453125 62.3125 C40.80207974 62.31902995 42.95963256 62.32428045 45.1171875 62.328125 C46.63927322 62.3466452 46.63927322 62.3466452 48.19210815 62.36553955 C55.12616797 62.41438849 55.12616797 62.41438849 61 59 C61.96161609 56.11515174 62.12654587 54.29771522 62.12939453 51.30078125 C62.13412277 49.87415161 62.13412277 49.87415161 62.13894653 48.41870117 C62.1369223 47.39365479 62.13489807 46.3686084 62.1328125 45.3125 C62.13376923 44.25844971 62.13472595 43.20439941 62.13571167 42.1184082 C62.13639238 39.88915955 62.13454571 37.65990891 62.13037109 35.43066406 C62.12502133 32.01362669 62.13031981 28.59672077 62.13671875 25.1796875 C62.13605795 23.01562471 62.13477675 20.851562 62.1328125 18.6875 C62.13483673 17.66245361 62.13686096 16.63740723 62.13894653 15.58129883 C62.13579437 14.6302124 62.13264221 13.67912598 62.12939453 12.69921875 C62.12859894 11.86221436 62.12780334 11.02520996 62.12698364 10.1628418 C62.0832976 7.81642396 62.0832976 7.81642396 61 5 C60.34 5 59.68 5 59 5 C59 4.34 59 3.68 59 3 C56.13744799 2.045816 54.30625372 1.86330203 51.33251953 1.83886719 C50.38788849 1.82925964 49.44325745 1.8196521 48.47000122 1.80975342 C47.45122894 1.80550354 46.43245667 1.80125366 45.3828125 1.796875 C44.33350555 1.79117493 43.28419861 1.78547485 42.20309448 1.77960205 C39.98224903 1.77015314 37.76138956 1.7636185 35.54052734 1.75976562 C32.14525888 1.75005792 28.75059518 1.71903216 25.35546875 1.6875 C23.19792026 1.68097005 21.04036744 1.67571955 18.8828125 1.671875 C17.86808868 1.6595282 16.85336487 1.6471814 15.80789185 1.63446045 C8.87383203 1.58561151 8.87383203 1.58561151 3 5 Z " fill="#DCECE0" transform="translate(0,0)"/>
<path d="M0 0 C1.1859375 -0.00386719 2.371875 -0.00773437 3.59375 -0.01171875 C5.45386719 0.00568359 5.45386719 0.00568359 7.3515625 0.0234375 C9.20007812 0.00603516 9.20007812 0.00603516 11.0859375 -0.01171875 C12.27445313 -0.00785156 13.46296875 -0.00398438 14.6875 0 C15.77337402 0.00338379 16.85924805 0.00676758 17.97802734 0.01025391 C21.64405974 0.48485019 24.34257424 1.76444924 26.9765625 4.3984375 C27.25474799 7.6818693 27.20833941 10.97961482 27.2265625 14.2734375 C27.2471875 15.19769531 27.2678125 16.12195313 27.2890625 17.07421875 C27.29679687 18.40646484 27.29679687 18.40646484 27.3046875 19.765625 C27.31870605 20.98934814 27.31870605 20.98934814 27.33300781 22.23779297 C26.9765625 24.3984375 26.9765625 24.3984375 25.70605469 26.18798828 C23.9765625 27.3984375 23.9765625 27.3984375 19.9765625 27.3984375 C19.9765625 26.7384375 19.9765625 26.0784375 19.9765625 25.3984375 C15.33951698 24.01304859 10.58126475 24.02849424 5.77734375 23.77734375 C4.39095703 23.58978516 4.39095703 23.58978516 2.9765625 23.3984375 C2.6465625 22.7384375 2.3165625 22.0784375 1.9765625 21.3984375 C5.53701427 20.21162024 8.41464587 20.30153918 12.1640625 20.3359375 C13.43636719 20.34496094 14.70867188 20.35398437 16.01953125 20.36328125 C17.48326172 20.38068359 17.48326172 20.38068359 18.9765625 20.3984375 C18.9765625 16.4384375 18.9765625 12.4784375 18.9765625 8.3984375 C17.42324219 8.41003906 15.86992188 8.42164063 14.26953125 8.43359375 C12.2343762 8.44297234 10.19921985 8.45207247 8.1640625 8.4609375 C6.62782227 8.47350586 6.62782227 8.47350586 5.06054688 8.48632812 C3.58618164 8.49116211 3.58618164 8.49116211 2.08203125 8.49609375 C1.17606201 8.50133057 0.27009277 8.50656738 -0.66333008 8.51196289 C-3.0234375 8.3984375 -3.0234375 8.3984375 -6.0234375 7.3984375 C-7.0134375 8.0584375 -8.0034375 8.7184375 -9.0234375 9.3984375 C-9.38762923 3.93556156 -9.38762923 3.93556156 -7.88818359 1.72412109 C-5.23110079 -0.16484979 -3.23916729 0.01011487 0 0 Z " fill="#92C89D" transform="translate(24.0234375,17.6015625)"/>
<path d="M0 0 C6.6 0 13.2 0 20 0 C20 3.96 20 7.92 20 12 C13.4 12 6.8 12 0 12 C0 8.04 0 4.08 0 0 Z " fill="#E6F3E9" transform="translate(23,26)"/>
<path d="M0 0 C2.64 0 5.28 0 8 0 C8 3.3 8 6.6 8 10 C4.7 10 1.4 10 -2 10 C-1.34 9.01 -0.68 8.02 0 7 C0.07905064 4.66800612 0.08798769 2.33167378 0 0 Z " fill="#FAFDFA" transform="translate(35,27)"/>
<path d="M0 0 C2.31 0 4.62 0 7 0 C7.625 2.375 7.625 2.375 8 5 C7.34 5.66 6.68 6.32 6 7 C1.44444444 6.44444444 1.44444444 6.44444444 0 5 C-0.04063832 3.33382885 -0.042721 1.66611905 0 0 Z " fill="#A8D3B1" transform="translate(28,29)"/>
<path d="M0 0 C1.98 0 3.96 0 6 0 C5.071875 1.1446875 5.071875 1.1446875 4.125 2.3125 C1.94402948 4.99625809 1.94402948 4.99625809 0 8 C0 5.36 0 2.72 0 0 Z " fill="#FAFCFA" transform="translate(0,0)"/>
<path d="M0 0 C0.33 0 0.66 0 1 0 C1 2.64 1 5.28 1 8 C-0.98 8 -2.96 8 -5 8 C-4.34 7.01 -3.68 6.02 -3 5 C-2.34 5 -1.68 5 -1 5 C-0.67 3.35 -0.34 1.7 0 0 Z " fill="#FBFDFA" transform="translate(63,56)"/>
<path d="M0 0 C2.31 0 4.62 0 7 0 C7 1.98 7 3.96 7 6 C6.34 5.67 5.68 5.34 5 5 C5 4.34 5 3.68 5 3 C2.525 2.01 2.525 2.01 0 1 C0 0.67 0 0.34 0 0 Z " fill="#FBFDFB" transform="translate(57,0)"/>
<path d="M0 0 C2.43929746 1.92576115 4.80090595 3.80090595 7 6 C4.69 6 2.38 6 0 6 C0 4.02 0 2.04 0 0 Z " fill="#FCFDFB" transform="translate(0,58)"/>
<path d="M0 0 C1.65 0 3.3 0 5 0 C5.33 1.32 5.66 2.64 6 4 C3 4 3 4 0 2 C0 1.34 0 0.68 0 0 Z " fill="#90C699" transform="translate(29,29)"/>
</svg>
